%
T1C.01181F095S3
X031319Y028937
X032953Y02939
X033937Y02939
X034528Y02937
X036437Y02939
X036949Y029331
X038031Y029331
X038445Y029724
X038681Y028673
X038937Y027972
X038957Y029429
X039665Y02811
X040189Y028681
X040443Y027815
X040945Y028031
X041693Y028685
X041949Y029409
X042677Y028209
X043287Y028091
X043504Y029705
X043878Y02937
X044213Y028705
X044941Y029547
X044943Y028051
X045157Y027402
X045827Y028012
X045945Y029508
X046201Y029173
X046717Y028661
X047161Y027717
X047677Y028701
X052323Y029094
X052402Y027736
X052343Y031181
X052323Y03061
X051398Y03185
X051181Y030689
X051161Y030098
X050689Y030689
X050197Y030039
X050177Y030701
X049783Y031417
X049443Y032014
X048689Y030689
X048642Y03185
X048209Y030669
X047953Y031358
X047943Y030098
X047205Y030673
X046949Y03128
X046693Y030685
X046476Y029921
X046437Y03126
X045945Y031339
X045689Y030689
X045453Y03128
X045453Y030079
X044941Y03128
X044705Y030697
X044213Y031732
X043689Y030689
X043443Y031496
X042689Y030689
X042598Y031535
X042343Y032244
X042189Y030689
X041949Y032205
X041673Y030665
X041307Y031299
X040945Y031476
X040689Y030689
X03999Y031388
X039705Y030059
X039449Y03126
X039193Y030685
X038937Y031339
X038445Y031614
X038189Y030689
X037953Y031299
X037689Y030689
X037441Y031339
X037197Y030689
X037047Y030079
X036457Y030118
X036437Y031398
X035965Y031634
X035197Y030681
X034724Y031555
X034685Y030689
X034055Y031323
X033681Y030689
X033443Y03126
X033189Y030689
X032382Y031496
X031358Y034488
X031909Y034094
X032972Y034803
X036083Y033681
X036909Y034094
X037933Y034488
X038169Y034823
X038189Y033681
X040433Y034823
X04437Y033878
X04439Y034626
X045689Y03372
X045748Y034626
X046555Y033996
X047067Y034685
X047146Y034291
X047677Y0325
X04935Y034685
X049685Y032953
X049902Y033996
X051083Y034291
X052717Y034488
X052736Y033957
X052717Y036713
X052421Y035079
X049291Y035689
X048307Y037087
X046693Y035079
X046319Y037087
X045492Y035768
X044764Y035906
X044252Y03502
X043898Y035453
X043878Y035965
X043307Y035965
X042362Y037146
X039488Y035197
X039291Y035925
X038937Y03622
X038071Y035197
X037795Y034961
X037028Y03622
X036772Y035925
X034449Y037146
X028799Y037028
X025827Y039882
X02752Y039862
X02874Y037776
X028878Y03878
X02937Y037776
X029429Y039134
X029941Y039409
X02998Y03876
X032697Y038327
X033228Y039075
X034055Y037638
X034094Y038661
X037913Y039311
X038091Y037461
X039173Y039429
X039193Y037461
X039567Y039409
X039783Y037421
X041299Y039409
X041654Y038327
X041693Y037441
X04248Y038031
X044213Y039075
X044528Y039665
X044606Y038287
X047657Y038287
X047835Y038957
X052008Y039528
X052992Y039094
X05315Y03874
X054016Y039469
X058898Y039902
X05748Y042165
X054449Y041043
X05439Y042244
X053799Y041654
X053406Y04065
X052146Y040906
X051772Y040925
X050217Y042067
X048898Y041949
X048701Y040354
X04815Y041654
X047264Y041929
X047028Y040925
X046043Y04124
X045118Y041083
X044921Y041437
X044567Y042106
X043898Y042126
X043583Y040335
X042756Y041516
X042343Y040807
X041713Y041772
X040709Y039941
X040492Y042303
X038169Y04002
X036437Y042303
X035472Y041457
X035197Y040453
X034921Y041791
X034685Y042067
X03439Y040807
X033661Y041102
X032382Y041378
X032382Y042087
X032205Y041791
X031516Y040472
X030748Y041122
X030689Y040118
X030335Y040138
X029685Y041102
X02937Y041378
X028937Y040197
X024035Y044213
X026378Y044665
X027854Y042638
X028799Y043543
X029173Y043898
X029429Y044724
X031673Y044882
X032244Y042441
X032283Y042795
X033248Y044193
X036201Y04437
X036772Y043248
X037047Y043543
X0375Y043937
X037736Y044705
X039862Y043386
X040039Y044469
X040748Y042776
X042913Y042795
X044213Y042657
X044803Y043543
X044823Y044724
X045689Y044724
X048228Y044744
X048386Y043346
X048425Y044409
X050689Y042835
X051476Y044528
X053209Y043543
X053504Y042913
X05437Y044724
X054665Y043937
X058957Y044134
X058642Y044941
X058583Y045354
X058287Y045709
X056811Y04628
X056772Y047323
X055039Y045551
X05502Y046299
X054961Y045138
X054567Y046713
X05315Y046339
X051437Y045748
X051437Y046142
X051417Y044961
X051358Y047244
X049862Y045709
X049862Y045335
X049843Y044921
X049823Y046496
X048425Y047264
X046752Y046693
X046713Y046299
X046693Y045492
X046299Y045098
X043012Y045748
X042992Y046142
X042933Y044961
X041575Y047283
X041496Y044902
X041457Y045335
X041417Y045709
X041417Y046476
X040039Y047165
X038425Y045512
X038327Y046693
X038307Y047087
X038031Y045118
X037953Y046299
X036476Y047264
X036319Y046299
X034665Y046142
X034646Y045748
X034567Y044961
X033169Y045315
X033091Y045709
X033031Y046909
X031614Y047244
X031594Y046299
X03002Y046299
X029882Y046693
X029803Y045512
X029705Y045118
X02626Y045866
X024606Y046949
X023465Y046772
X030748Y047815
X032283Y047657
X033524Y048366
X03376Y04874
X034114Y047913
X036102Y049646
X036161Y049173
X037382Y048366
X037559Y04874
X038543Y048228
X040295Y048563
X040492Y047657
X040807Y048563
X043091Y048937
X043366Y048228
X045177Y048228
X045197Y048937
X04752Y047697
X049094Y047657
X050197Y048878
X051024Y049409
X051102Y04878
X053091Y049429
X05311Y04874
X055886Y0475
X05748Y047638
X05372Y054272
X053563Y051102
X051969Y054272
X051909Y051083
X051555Y050256
X051063Y052657
X050197Y050079
X049528Y052657
X047874Y052205
X047854Y052657
X047795Y05315
X04378Y05315
X04376Y052657
X04374Y052185
X037244Y052539
X037224Y053091
X035Y050079
X034291Y050059
X032953Y051949
X032894Y052539
X032854Y053071
X031319Y052539
X030236Y050906
X030138Y054134
X029862Y052539
X028504Y054134
X028484Y050906
T2C.037F197S55
X030768Y037031
X030768Y036031
X030768Y038031
T3C.04134F139S55
X026299Y043976
X031535Y043976
X034685Y043976
X039921Y043976
X043071Y043976
X048307Y043976
X051457Y043976
X056693Y043976
X056693Y046732
X051457Y046732
X048307Y046732
X043071Y046732
X039921Y046732
X034685Y046732
X031535Y046732
X026299Y046732
T4C.05F107S55
X030988Y030935
X052447Y029734
T5C.08268F074S55
X022717Y041102
X037697Y041142
X056024Y041102
X057402Y053307
X041496Y053307
X025591Y053307
T6C.1063F069S658
X029291Y032933
X054213Y032933
M30
