*
*
G04 PADS 9.4.1 Build Number: 494907 generated Gerber (RS-274-X) file*
G04 PC Version=2.1*
*
%IN "dipterv_20141103_done.p"*%
*
%MOIN*%
*
%FSLAX35Y35*%
*
*
*
*
G04 PC Standard Apertures*
*
*
G04 Thermal Relief Aperture macro.*
%AMTER*
1,1,$1,0,0*
1,0,$1-$2,0,0*
21,0,$3,$4,0,0,45*
21,0,$3,$4,0,0,135*
%
*
*
G04 Annular Aperture macro.*
%AMANN*
1,1,$1,0,0*
1,0,$2,0,0*
%
*
*
G04 Odd Aperture macro.*
%AMODD*
1,1,$1,0,0*
1,0,$1-0.005,0,0*
%
*
*
G04 PC Custom Aperture Macros*
*
*
*
*
*
*
G04 PC Aperture Table*
*
%ADD022R,0.06X0.06*%
%ADD066C,0.01*%
%ADD165C,0.03937*%
%ADD198C,0.001*%
%ADD204C,0.06*%
%ADD205C,0.00591*%
%ADD206C,0.00984*%
%ADD207C,0.02756*%
%ADD208C,0.19685*%
*
*
*
*
G04 PC Circuitry*
G04 Layer Name dipterv_20141103_done.p - circuitry*
%LPD*%
*
*
G04 PC Custom Flashes*
G04 Layer Name dipterv_20141103_done.p - flashes*
%LPD*%
*
*
G04 PC Circuitry*
G04 Layer Name dipterv_20141103_done.p - circuitry*
%LPD*%
*
G54D22*
G01X307677Y380315D03*
G54D66*
X539107Y260236D02*
X545669D01*
X541294Y262282D02*
X545669D01*
X542544D02*
X541607Y262963D01*
X541294Y263418*
Y264100*
X541607Y264554*
X542544Y264782*
X545669*
X541294Y266827D02*
X545669D01*
X542544D02*
X541607Y267509D01*
X541294Y267963*
Y268645*
X541607Y269100*
X542544Y269327*
X545669*
X543169Y271373D02*
Y274100D01*
X542544*
X541919Y273873*
X541607Y273645*
X541294Y273191*
Y272509*
X541607Y272054*
X542232Y271600*
X543169Y271373*
X543794*
X544732Y271600*
X545357Y272054*
X545669Y272509*
Y273191*
X545357Y273645*
X544732Y274100*
X541294Y276145D02*
X545669D01*
X543169D02*
X542232Y276373D01*
X541607Y276827*
X541294Y277282*
Y277963*
X539107Y286827D02*
X545669D01*
X539107Y285236D02*
Y288418D01*
X541294Y291600D02*
X541607Y291145D01*
X542232Y290691*
X543169Y290463*
X543794*
X544732Y290691*
X545357Y291145*
X545669Y291600*
Y292282*
X545357Y292736*
X544732Y293191*
X543794Y293418*
X543169*
X542232Y293191*
X541607Y292736*
X541294Y292282*
Y291600*
Y295463D02*
X547857D01*
X542232D02*
X541607Y295918D01*
X541294Y296373*
Y297054*
X541607Y297509*
X542232Y297963*
X543169Y298191*
X543794*
X544732Y297963*
X545357Y297509*
X545669Y297054*
Y296373*
X545357Y295918*
X544732Y295463*
X542244Y347471D02*
X541932D01*
X541307Y347699*
X540994Y347926*
X540682Y348380*
Y349290*
X540994Y349744*
X541307Y349971*
X541932Y350199*
X542557*
X543182Y349971*
X544119Y349517*
X547244Y347244*
Y350426*
X551181Y254724D02*
Y386024D01*
X556496Y391339*
X602559*
Y548819*
X204331*
Y391339*
X277559*
X283465Y385433*
Y254724*
X551181*
G54D165*
X262992Y439764D03*
Y467323D03*
X315354Y439764D03*
Y467323D03*
X346850Y439764D03*
Y467323D03*
X399213Y439764D03*
Y467323D03*
X430709Y439764D03*
Y467323D03*
X483071Y439764D03*
Y467323D03*
X514567Y439764D03*
Y467323D03*
X566929Y439764D03*
Y467323D03*
G54D198*
G54D204*
X307677Y370315D03*
Y360315D03*
G54D205*
X419488Y322047D02*
Y306654D01*
Y294094*
X462008Y301969D02*
Y316535D01*
X467126Y321654*
X462008Y301969D02*
X464764Y299213D01*
X308661Y380315D02*
X309350Y379626D01*
X299606Y387795D02*
X299803Y387598D01*
X445669Y421260D02*
X445866D01*
X445669Y421063*
Y421260*
X438976*
G54D206*
X409449Y280315D02*
Y306890D01*
X517717Y283661D02*
Y306102D01*
X523425Y311811*
X517717Y283661D02*
X524016Y277362D01*
X384449Y316142D02*
Y306890D01*
Y297244*
X409449Y306890D02*
Y314764D01*
X459449Y313386D02*
Y306890D01*
Y295079*
X519291Y294882D02*
Y302165D01*
X523228Y306102*
X519291Y294882D02*
X523228Y290945D01*
X307283Y333071D02*
Y359921D01*
X307677Y360315*
X307283Y333071D02*
X315354Y325000D01*
X476772*
X467126Y321654D02*
X478543D01*
X479921Y323031*
X480118*
X486417Y318504D02*
X490731D01*
X491912Y317323*
X502714*
X503895Y318504*
X513976*
X309449Y350787D02*
Y353740D01*
X312303Y356594*
X309449Y350787D02*
Y337008D01*
X318504Y327953*
X478543*
X480118Y326378*
Y323031*
X313583Y344882D02*
X379331D01*
X319094Y340945D02*
X369094D01*
X329724Y348031D02*
X353051D01*
X354626Y349606*
X377953*
X360827Y336811D02*
X381890D01*
X381693Y348228D02*
X384843Y345079D01*
Y331102*
X386220Y329724*
X387598*
X388780Y330906*
Y346850*
X390157Y348228*
X391732*
X392913Y347047*
Y331693*
X394488Y330118*
X396457*
X397441Y331102*
Y347244*
X398425Y348228*
X404331*
X380709Y351969D02*
X394882D01*
X442520Y350197D02*
X458268D01*
X459252Y351181*
Y352756*
X443898Y346260D02*
X457480D01*
X456890Y337205D02*
X463780Y344094D01*
Y351118*
X469552Y356890*
X492913*
X443701Y338780D02*
X453480D01*
X461024Y346323*
Y350589*
X477561Y367126*
X527165*
X465551Y339961D02*
X499016D01*
X470669Y346850D02*
X493504D01*
X466929Y350787D02*
X524213D01*
X471457Y342913D02*
X500197D01*
X502953Y345669*
X517734*
X518521Y344882*
X527165*
X510827Y342913D02*
X514173Y339567D01*
X527362*
X287992Y370276D02*
X307638D01*
X307677Y370315*
X344488Y371457D02*
X423622D01*
X367717Y359252D02*
X392913D01*
X370276Y362205D02*
X389370D01*
X433071Y359646D02*
X438780D01*
X442913Y354134D02*
Y355118D01*
X443701Y355906*
X450591*
X452362Y357677*
X454921*
X442913Y354134D02*
X443701Y353346D01*
X458661*
X459252Y352756*
X438976Y354528D02*
X443504Y359055D01*
X447638*
X463189Y370866D02*
X470079D01*
X483465Y384252*
X530709*
X531496Y383465*
X483071Y370866D02*
X531102D01*
X533071Y372835*
Y374409*
X287402Y377756D02*
X293701D01*
X288780Y387795D02*
X299606D01*
X309350Y379626D02*
X311417D01*
X312303Y378740*
Y356594*
X307677Y380315D02*
X308661D01*
X332283Y390748D02*
X356496D01*
X356693Y390551*
X409843*
X410039Y390748*
X442126*
X326969Y383268D02*
X416535D01*
X340945Y386614D02*
X424606D01*
X428346Y382874*
Y341732*
X438189Y331890*
X494488*
X496850Y329528*
X340551Y376378D02*
X361105D01*
X365042Y380315*
X424803*
X379134Y393307D02*
X389764D01*
X390889Y394433*
X391591*
X391732Y394291*
X379134Y393110D02*
Y393307D01*
X380906Y374606D02*
X391929D01*
X397835Y374213D02*
X407283D01*
X407480Y374409*
X416929*
X446063Y382874D02*
X476575D01*
X483071Y376772D02*
Y378346D01*
X484252Y379528*
X529921*
X531496Y381102*
Y383465*
X483071Y376772D02*
X484252Y375591D01*
X531890*
X533071Y374409*
X478346Y389567D02*
X503839D01*
X506004Y387402*
X531496*
X529921Y390945D02*
X533661Y394685D01*
X540157*
X258268Y398819D02*
X258465Y398228D01*
X261195Y395498*
Y395452*
X290178*
X294291Y391339*
X275197Y398622D02*
X275394Y398425D01*
X376181*
X377756Y396850*
X393701*
X393898Y396654*
X445276*
X289370Y401969D02*
X302438D01*
X303029Y401378*
X303346*
X296850Y411024D02*
X301754D01*
X304116Y408661*
X320096*
X322458Y411024*
X336614*
X299409Y394094D02*
X372441D01*
X373228Y393307*
X379134*
X306890Y401181D02*
X337993D01*
X338977Y400197*
X381693*
X315157Y404724D02*
X333465D01*
X333661Y404528*
X351969*
X343898Y408071D02*
X348228D01*
X354724Y414567*
X395669Y394094D02*
X412992D01*
X407087Y399409D02*
X415748Y408071D01*
X423425*
X435827Y403346D02*
X462679D01*
X465042Y400984*
X543701*
X549016Y395669*
X581102*
X593898Y408465*
Y448622*
X470276Y409252D02*
X517717D01*
X460433Y412402D02*
X495830D01*
X495830D02*
X496026Y412205D01*
X539961*
X550394Y422638*
Y427189*
X551028Y427823*
X551925*
X552559Y427189*
Y422413*
X553193Y421779*
X554090*
X554724Y422413*
Y430439*
X555359Y431073*
X556256*
X556890Y430439*
Y424089*
X557524Y423455*
X558421*
X559055Y424089*
Y431029*
X559689Y431664*
X560586*
X561220Y431029*
Y424089*
X561855Y423455*
X562752*
X563386Y424089*
Y431791*
X564020Y432425*
X564917*
X565551Y431791*
Y424850*
X566185Y424216*
X567082*
X567717Y424850*
Y433024*
X568351Y433658*
X569248*
X569882Y433024*
Y427432*
X570516Y426797*
X571413*
X572047Y427432*
Y437988*
X582874Y448815*
Y457087*
X487008Y403543D02*
X543701D01*
X547244Y400000*
X564663*
X589567Y424904*
Y441339*
X520079Y395276D02*
X520669Y395866D01*
X520866*
X522933Y397933*
X542913*
X546949Y393898*
X583858*
Y394193*
X588681Y399016*
X588976*
X521457Y409055D02*
X538287D01*
X539665Y410433*
X544488*
X278543Y426378D02*
X316535D01*
X318504Y424409*
X322441*
X293701Y413780D02*
X323819D01*
X322047Y417913D02*
X349213D01*
X323819Y420866D02*
X335236D01*
X335433Y420669*
X346850*
X322835Y427953D02*
X365059D01*
X365256Y427756*
X407480*
X367717Y432480D02*
X392717D01*
X394291Y434055*
X398425*
X398622Y433858*
X364370Y423031D02*
X404921D01*
X429134Y427953D02*
X445374Y444193D01*
X445571*
X445669Y444291*
X484252*
Y444094*
X427559Y415157D02*
X436417Y406299D01*
X483907*
X484104Y406496*
X534055*
X442126Y426575D02*
Y434843D01*
X448031Y440748*
X466732*
X474016Y433465*
X483858*
X449213Y414370D02*
X450787Y415945D01*
Y437402*
X451181Y437795*
X452756*
X453346Y437205*
Y413189*
X454134Y412402*
X455709*
X456299Y412992*
Y437402*
X457087Y438189*
X457874*
X458465Y437598*
Y416732*
X460236Y414961*
X461024*
X462008Y415945*
Y436811*
X463189Y437992*
X464173*
X465354Y436811*
Y415354*
X466142Y414567*
X466929*
X467717Y415354*
Y434646*
X468110Y435039*
X469291*
X470079Y434252*
Y416929*
X471063Y415945*
X473622*
X477165Y419488*
X488976*
X472638Y419291D02*
Y419685D01*
X475117*
X477559Y422127*
Y428999*
X478193Y429634*
X479090*
X479724Y428999*
Y421697*
X480359Y421063*
X481256*
X481890Y421697*
Y428999*
X482524Y429634*
X483421*
X484055Y428999*
Y421697*
X484689Y421063*
X485586*
X486220Y421697*
Y429885*
X486855Y430519*
X487752*
X488386Y429885*
Y422583*
X489020Y421949*
X489917*
X490551Y422583*
Y429330*
X491185Y429964*
X492082*
X492717Y429330*
Y419630*
X493351Y418996*
X494248*
X494882Y419630*
Y426047*
X495516Y426681*
X496413*
X497047Y426047*
Y418843*
X497681Y418209*
X513736*
X514370Y418843*
Y424571*
X515004Y425205*
X515901*
X516535Y424571*
Y418744*
X517170Y418110*
X518067*
X520249Y420292*
Y423771*
X520866Y424389*
Y425283*
X481496Y416535D02*
X528597D01*
X528805Y416327*
Y414589*
X529440Y413954*
X530336*
X530971Y414589*
Y420954*
X506890Y428346D02*
X511463Y432920D01*
X533078*
X534975Y434817*
X566648*
X574803Y442971*
Y476378*
X502165Y420669D02*
X507607D01*
X518231Y431293*
X533702*
X534004Y431594*
X536059*
X539829Y427824*
Y426510*
X543898Y422441*
X520249Y428102D02*
X521805Y429659D01*
X534514*
X535039Y429134*
X520249Y428102D02*
Y425901D01*
X520866Y425283*
X521823Y427450D02*
X522458Y428084D01*
X532502*
X533136Y427450*
Y417170*
X533770Y416535*
X537992*
X521823Y427450D02*
Y426553D01*
X522458Y425919*
X530336*
X530971Y425284*
X521823Y423119D02*
X522458Y423753D01*
X530336*
X530971Y424388*
Y425284*
X521823Y423119D02*
Y422222D01*
X522458Y421588*
X530336*
X530971Y420954*
X400394Y444685D02*
X414173Y430906D01*
Y426378*
X420965Y419587*
X431299*
X439862Y411024*
X451181*
Y410827*
X585827Y453543D02*
X588976D01*
X593898Y448622*
X363189Y462992D02*
X379528D01*
X384252Y455118D02*
X390551D01*
X393110Y452559*
Y440354*
X397047Y436417*
X403937*
X411220Y429134*
Y423622*
X417126Y417717*
X335236Y483661D02*
X373819D01*
X341142Y479134D02*
X382283D01*
X385433Y482283*
X337598Y487402D02*
X375591D01*
X501969Y488780D02*
Y500787D01*
G54D207*
X313189Y289370D03*
X369488Y293307D03*
X396654Y281102D03*
X386811Y286732D03*
X389370Y279724D03*
X380315Y293307D03*
X416929Y286850D03*
X401890Y286811D03*
X404429Y278150D03*
X409449Y280315D03*
X426772Y282087D03*
X432874Y280906D03*
X451575Y274016D03*
X449429Y280512D03*
X442126Y287047D03*
X471614Y277165D03*
X467165Y286614D03*
X476772Y287008D03*
X462008Y291732D03*
X458268Y280118D03*
X523228Y290945D03*
X524016Y277362D03*
X329528Y293898D03*
X334429Y312598D03*
X331890Y306890D03*
X336811D03*
X339370Y293898D03*
X345276Y293701D03*
X340551Y313228D03*
X346850Y306890D03*
X351969Y306811D03*
X370472Y300787D03*
X364370Y293898D03*
X374409Y313386D03*
X371969Y306890D03*
X364567Y301181D03*
X376890Y306890D03*
X384449Y297244D03*
X381890Y306890D03*
X391929Y306850D03*
X389370Y313386D03*
X389567Y294291D03*
X379528Y312992D03*
X394488Y312598D03*
X397047Y300591D03*
X416732Y306654D03*
X406890Y306890D03*
X413071Y312992D03*
X421890Y306890D03*
X426890D03*
X419488Y294094D03*
X436890Y306890D03*
X435039Y297047D03*
X447047Y306969D03*
X454528Y312795D03*
X449409Y295472D03*
X456890Y306890D03*
X454528Y300787D03*
X438780Y293701D03*
X449409Y312795D03*
X464764Y299213D03*
X469488Y312795D03*
X464370Y312598D03*
X472047Y306732D03*
X466929Y306850D03*
X459449Y313386D03*
Y295079D03*
X479429Y300984D03*
X486890Y306890D03*
X482087Y306693D03*
X479528Y313583D03*
X511811Y306890D03*
X511614Y300984D03*
X501969Y300394D03*
X506890Y306890D03*
X501772Y307008D03*
X523228Y306102D03*
X523425Y311811D03*
X323819Y314961D03*
X347244Y315551D03*
X364370Y313976D03*
X359646Y316339D03*
X384449Y316142D03*
X399902Y313878D03*
X409449Y314764D03*
X425984Y315354D03*
X419488Y322047D03*
X434429Y314961D03*
X423425Y322441D03*
X442126Y317323D03*
X476772Y325000D03*
X496850Y329528D03*
X494429Y320138D03*
X486417Y318504D03*
X497835Y314173D03*
X513976Y318504D03*
X313583Y344882D03*
X319094Y340945D03*
X329724Y348031D03*
X360827Y336811D03*
X369094Y340945D03*
X381890Y336811D03*
X379331Y344882D03*
X381693Y348228D03*
X394882Y351969D03*
X380709D03*
X377953Y349606D03*
X404331Y348228D03*
X442520Y350197D03*
X443898Y346260D03*
X456890Y337205D03*
X443701Y338780D03*
X457480Y346260D03*
X465551Y339961D03*
X470669Y346850D03*
X466929Y350787D03*
X471457Y342913D03*
X493504Y346850D03*
X510827Y342913D03*
X499016Y339961D03*
X527362Y339567D03*
X524213Y350787D03*
X527165Y344882D03*
X287992Y370276D03*
X344488Y371457D03*
X367717Y359252D03*
X370276Y362205D03*
X392913Y359252D03*
X389370Y362205D03*
X433071Y359646D03*
X423622Y371457D03*
X438780Y359646D03*
X454921Y357677D03*
X447638Y359055D03*
X438976Y354528D03*
X463189Y370866D03*
X492913Y356890D03*
X483071Y370866D03*
X527165Y367126D03*
X294291Y391339D03*
X293701Y377756D03*
X287402D03*
X288780Y387795D03*
X299803Y387598D03*
X332283Y390748D03*
X326969Y383268D03*
X340945Y386614D03*
X340551Y376378D03*
X379134Y393110D03*
X391929Y374606D03*
X380906D03*
X416929Y374409D03*
X397835Y374213D03*
X416535Y383268D03*
X424803Y380315D03*
X442126Y390748D03*
X446063Y382874D03*
X476575D03*
X478346Y389567D03*
X529921Y390945D03*
X531496Y387402D03*
X258268Y398819D03*
X275197Y398622D03*
X289370Y401969D03*
X296850Y411024D03*
X299409Y394094D03*
X307480Y411220D03*
X306890Y401181D03*
X303346Y401378D03*
X315157Y404724D03*
X336614Y411024D03*
X343898Y408071D03*
X351969Y404528D03*
X391732Y394291D03*
X381693Y400197D03*
X395669Y394094D03*
X407087Y399409D03*
X412992Y394094D03*
X423425Y408071D03*
X435827Y403346D03*
X445276Y396654D03*
X451181Y410827D03*
X470276Y409252D03*
X460433Y412402D03*
X487008Y403543D03*
X520079Y395276D03*
X517717Y409252D03*
X521457Y409055D03*
X534055Y406496D03*
X540157Y394685D03*
X544488Y410433D03*
X588976Y399016D03*
X278543Y426378D03*
X293701Y413780D03*
X322441Y424409D03*
X322047Y417913D03*
X323819Y420866D03*
X322835Y427953D03*
X323819Y413780D03*
X354724Y414567D03*
X349213Y417913D03*
X346850Y420669D03*
X367717Y432480D03*
X364370Y423031D03*
X417126Y417717D03*
X404921Y423031D03*
X407480Y427756D03*
X429134Y427953D03*
X427559Y415157D03*
X442126Y426575D03*
X445669Y421063D03*
X438976Y421260D03*
X449213Y414370D03*
X472638Y419291D03*
X483858Y433465D03*
X488976Y419488D03*
X481496Y416535D03*
X506890Y428346D03*
X502165Y420669D03*
X535039Y429134D03*
X543898Y422441D03*
X537992Y416535D03*
X574803Y421654D03*
X240354Y442126D03*
X263780Y446654D03*
X291732Y438976D03*
X287992Y435433D03*
X294291Y447244D03*
X297047Y451181D03*
X316732Y448819D03*
X332480Y441929D03*
X331693Y453150D03*
X345669Y449606D03*
X362008Y443701D03*
X375000Y439370D03*
X370472Y435433D03*
X377362Y447047D03*
X380315Y451181D03*
X398622Y433858D03*
X400394Y444685D03*
X414961Y449016D03*
X414567Y453346D03*
X429331Y449606D03*
X448228Y447244D03*
X448031Y435433D03*
X456890Y447244D03*
X462992Y450984D03*
X484252Y444094D03*
X482283Y447441D03*
X514764Y445276D03*
X514173Y449606D03*
X498425Y449213D03*
X498622Y453346D03*
X532087Y435433D03*
X546654Y439370D03*
X549606Y451378D03*
X543701Y447244D03*
X589567Y441339D03*
X585827Y453543D03*
X586417Y449409D03*
X234646Y467717D03*
X246063Y469488D03*
X262598Y458661D03*
X298819Y466929D03*
X315945Y462992D03*
X300197D03*
X316142Y472441D03*
X298031Y455118D03*
X330315Y469094D03*
X330906Y457087D03*
X346457Y457480D03*
X346654Y461417D03*
X364764Y472638D03*
X363189Y462992D03*
X383268Y466929D03*
X384252Y455118D03*
X383071Y470866D03*
X379528Y462992D03*
X415748Y472835D03*
X400394Y471654D03*
X414173Y457087D03*
Y464764D03*
X429921Y461417D03*
X430118Y457480D03*
X466929Y454921D03*
X467520Y466929D03*
X467126Y462992D03*
X484252Y472638D03*
X513583Y472441D03*
X514370Y457480D03*
Y461417D03*
X498622Y457087D03*
X498228Y464961D03*
X531496Y463386D03*
X550197Y462992D03*
X550394Y455512D03*
X545669Y467126D03*
X567717Y473228D03*
X568110Y462795D03*
X582874Y457087D03*
X307480Y478150D03*
X335236Y483661D03*
X322835Y476575D03*
X341142Y479134D03*
X337598Y487402D03*
X373819Y483661D03*
X375591Y487402D03*
X361614Y491732D03*
X385433Y482283D03*
X408071Y485630D03*
X402953D03*
X404921Y476575D03*
X430906Y489370D03*
X433661Y482283D03*
X451969Y489370D03*
X451772Y482283D03*
X475197Y476969D03*
X490945Y476575D03*
X511024Y487795D03*
X501969Y488780D03*
X531102Y487402D03*
X574803Y476378D03*
X558858Y475000D03*
X284843Y509055D03*
X302362D03*
X342913Y500591D03*
X350000Y500787D03*
X361024Y496457D03*
X515551Y502559D03*
X510236Y494094D03*
X501969Y500787D03*
X535630Y511024D03*
X519094Y510827D03*
X530906Y494291D03*
X298622Y525394D03*
X313189D03*
X328937D03*
X328543Y530709D03*
X329528Y519488D03*
X372244Y530906D03*
X372441Y525394D03*
X437598Y526575D03*
X437402Y521850D03*
X437795Y531496D03*
X495276Y526575D03*
X478740Y522047D03*
X478543Y526575D03*
X477953Y531496D03*
X510630Y526575D03*
X285039Y541339D03*
X301378D03*
X519685Y542717D03*
X537205D03*
G54D208*
X227165Y411024D03*
X376969Y411417D03*
X560236Y411024D03*
X255906Y533071D03*
X414961D03*
X574016D03*
X0Y0D02*
M02*
