*
*
G04 PADS 9.4.1 Build Number: 494907 generated Gerber (RS-274-X) file*
G04 PC Version=2.1*
*
%IN "dipterv_20141103_done.p"*%
*
%MOIN*%
*
%FSLAX35Y35*%
*
*
*
*
G04 PC Standard Apertures*
*
*
G04 Thermal Relief Aperture macro.*
%AMTER*
1,1,$1,0,0*
1,0,$1-$2,0,0*
21,0,$3,$4,0,0,45*
21,0,$3,$4,0,0,135*
%
*
*
G04 Annular Aperture macro.*
%AMANN*
1,1,$1,0,0*
1,0,$2,0,0*
%
*
*
G04 Odd Aperture macro.*
%AMODD*
1,1,$1,0,0*
1,0,$1-0.005,0,0*
%
*
*
G04 PC Custom Aperture Macros*
*
*
*
*
*
*
G04 PC Aperture Table*
*
%ADD066C,0.01*%
%ADD089R,0.04937X0.04937*%
%ADD095R,0.07X0.07*%
%ADD174C,0.07*%
%ADD198C,0.001*%
%ADD212C,0.04937*%
%ADD213R,0.09504X0.05213*%
%ADD214R,0.33677X0.2852*%
%ADD215R,0.0848X0.06315*%
%ADD216R,0.0474X0.04543*%
%ADD217R,0.0474X0.04937*%
%ADD219R,0.04937X0.0474*%
*
*
*
*
G04 PC Circuitry*
G04 Layer Name dipterv_20141103_done.p - circuitry*
%LPD*%
*
*
G04 PC Custom Flashes*
G04 Layer Name dipterv_20141103_done.p - flashes*
%LPD*%
*
*
G04 PC Circuitry*
G04 Layer Name dipterv_20141103_done.p - circuitry*
%LPD*%
*
G54D66*
G01X551181Y254724D02*
Y386024D01*
X556496Y391339*
X602559*
Y548819*
X204331*
Y391339*
X277559*
X283465Y385433*
Y254724*
X551181*
G54D89*
X389567Y299016D03*
X469488Y295472D03*
X429528D03*
X449409Y299606D03*
X504724Y273622D03*
X490157Y275591D03*
X483465D03*
X488189Y295669D03*
X495276Y295276D03*
X370866Y273622D03*
X364567D03*
X509843Y273228D03*
G54D95*
X307677Y380315D03*
G54D174*
Y370315D03*
Y360315D03*
G54D198*
G54D212*
X262992Y439764D03*
Y467323D03*
X315354Y439764D03*
Y467323D03*
X346850Y439764D03*
Y467323D03*
X399213Y439764D03*
Y467323D03*
X430709Y439764D03*
Y467323D03*
X483071Y439764D03*
Y467323D03*
X514567Y439764D03*
Y467323D03*
X566929Y439764D03*
Y467323D03*
G54D213*
X502480Y516575D03*
Y526575D03*
Y536575D03*
X306378Y535394D03*
Y525394D03*
Y515394D03*
G54D214*
X457874Y526575D03*
X350984Y525394D03*
G54D215*
X543898Y520079D03*
Y532283D03*
X274606Y529724D03*
Y517520D03*
G54D216*
X525591Y511024D03*
Y516929D03*
X290354Y509055D03*
Y514961D03*
X290945Y541339D03*
Y535433D03*
X526181Y542717D03*
Y536811D03*
G54D217*
X508268Y296457D03*
X501969D03*
X374016Y297441D03*
X380315D03*
X344685Y299409D03*
X338386D03*
G54D219*
X357480Y300984D03*
Y294685D03*
X0Y0D02*
M02*
